mtllib Chair.mtl
o Chair.obj
v -2.123465 0.407167 0.000000
v -2.123465 0.592833 0.000000
v -2.196422 0.407167 0.343238
v -2.196422 0.592833 0.343238
v -2.402679 0.407167 0.627126
v -2.402679 0.592833 0.627126
v -2.706573 0.407167 0.802579
v -2.706573 0.592833 0.802579
v -3.055556 0.407167 0.839259
v -3.055556 0.592833 0.839259
v -3.389287 0.407167 0.730823
v -3.389287 0.592833 0.730823
v -3.650061 0.407167 0.496021
v -3.650061 0.592833 0.496021
v -3.792788 0.407167 0.175453
v -3.792788 0.592833 0.175453
v -3.792787 0.407167 -0.175453
v -3.792787 0.592833 -0.175453
v -3.650061 0.407167 -0.496021
v -3.650061 0.592833 -0.496021
v -3.389287 0.407167 -0.730823
v -3.389287 0.592833 -0.730823
v -3.055556 0.407167 -0.839259
v -3.055556 0.592833 -0.839259
v -2.706573 0.407167 -0.802579
v -2.706573 0.592833 -0.802579
v -2.402679 0.407167 -0.627126
v -2.402679 0.592833 -0.627126
v -2.196422 0.407167 -0.343237
v -2.196422 0.592833 -0.343237
v -2.967346 0.592833 0.000000
v -2.967346 0.407167 0.000000
v -2.292610 -1.045499 0.563689
v -2.328287 0.513097 0.515927
v -2.373229 -1.045499 0.674653
v -2.408906 0.513097 0.626890
v -2.503674 -1.045499 0.632268
v -2.539351 0.513097 0.584506
v -2.503674 -1.045499 0.495110
v -2.539351 0.513097 0.447348
v -2.373229 -1.045499 0.452726
v -2.408906 0.513097 0.404963
v -2.444961 0.513097 0.515927
v -2.409284 -1.045499 0.563689
v -2.328287 -0.266201 0.515927
v -2.408906 -0.266201 0.626890
v -2.539351 -0.266201 0.584506
v -2.539351 -0.266201 0.447348
v -2.408906 -0.266201 0.404963
v -3.432619 -1.045260 -0.579606
v -3.367311 0.558070 -0.531313
v -3.513238 -1.045260 -0.690569
v -3.447084 0.546419 -0.642276
v -3.643683 -1.045260 -0.648185
v -3.576160 0.527567 -0.599892
v -3.643683 -1.045260 -0.511027
v -3.576160 0.527567 -0.462734
v -3.513238 -1.045260 -0.468642
v -3.447084 0.546419 -0.420349
v -3.549293 -1.045260 -0.579606
v -3.384449 -0.265962 -0.531313
v -3.465068 -0.265962 -0.642276
v -3.595513 -0.265962 -0.599892
v -3.595513 -0.265962 -0.462734
v -3.465068 -0.265962 -0.420349
v -3.547363 1.790872 -0.531313
v -3.627137 1.779221 -0.642276
v -3.756212 1.760369 -0.599892
v -3.756212 1.760369 -0.462734
v -3.627137 1.779221 -0.420349
v -3.820892 2.203227 -0.422045
v -3.808108 2.115695 -0.333585
v -3.695767 2.249127 -0.449381
v -3.605651 2.189963 -0.377815
v -3.675082 2.107498 -0.306249
v -3.836180 2.307899 -0.239806
v -3.712142 2.361244 -0.253474
v -3.619179 2.282589 -0.217691
v -3.685763 2.180631 -0.181908
v -3.819877 2.196274 -0.195576
v -3.782160 1.938032 -0.431305
v -3.788552 1.981798 -0.544115
v -3.661452 2.014174 -0.578975
v -3.576507 1.990418 -0.487710
v -3.651109 1.943359 -0.396445
v -3.432619 -1.045260 0.572286
v -3.367311 0.558070 0.523993
v -3.513238 -1.045260 0.683249
v -3.447084 0.546419 0.634956
v -3.643683 -1.045260 0.640865
v -3.576160 0.527567 0.592572
v -3.643683 -1.045260 0.503707
v -3.576160 0.527567 0.455414
v -3.513238 -1.045260 0.461323
v -3.447084 0.546419 0.413030
v -3.549293 -1.045260 0.572286
v -3.384449 -0.265962 0.523993
v -3.465068 -0.265962 0.634956
v -3.595513 -0.265962 0.592572
v -3.595513 -0.265962 0.455414
v -3.465068 -0.265962 0.413030
v -3.547363 1.790872 0.523993
v -3.627137 1.779221 0.634956
v -3.756212 1.760369 0.592572
v -3.756212 1.760369 0.455414
v -3.627137 1.779221 0.413030
v -3.841898 2.347051 0.000000
v -3.822076 2.211333 0.000000
v -3.718948 2.407842 0.000000
v -3.623138 2.309695 0.000000
v -3.686875 2.188246 0.000000
v -3.820892 2.203227 0.414726
v -3.808108 2.115695 0.326265
v -3.695767 2.249127 0.442062
v -3.605651 2.189963 0.370495
v -3.675082 2.107498 0.298929
v -3.836180 2.307899 0.232486
v -3.712142 2.361244 0.246154
v -3.619179 2.282589 0.210371
v -3.685763 2.180631 0.174588
v -3.819877 2.196274 0.188256
v -3.782160 1.938032 0.423986
v -3.788552 1.981798 0.536795
v -3.661452 2.014174 0.571655
v -3.576507 1.990417 0.480390
v -3.651109 1.943359 0.389126
v -2.386056 -1.045499 -0.642078
v -2.433819 0.513097 -0.606401
v -2.275093 -1.045499 -0.561458
v -2.322855 0.513097 -0.525782
v -2.317477 -1.045499 -0.431013
v -2.365240 0.513097 -0.395337
v -2.454635 -1.045499 -0.431013
v -2.502398 0.513097 -0.395337
v -2.497019 -1.045499 -0.561458
v -2.544782 0.513097 -0.525782
v -2.433819 0.513097 -0.489727
v -2.386056 -1.045499 -0.525404
v -2.433819 -0.266201 -0.606401
v -2.322855 -0.266201 -0.525782
v -2.365240 -0.266201 -0.395337
v -2.502398 -0.266201 -0.395337
v -2.544782 -0.266201 -0.525782
vn 0.699253 -0.714875 -0.000000
vn 0.699253 0.714875 -0.000000
vn 0.638799 -0.714875 0.284412
vn 0.638799 0.714875 0.284412
vn 0.467891 -0.714875 0.519646
vn 0.467891 0.714875 0.519646
vn 0.216081 -0.714875 0.665029
vn 0.216081 0.714875 0.665029
vn -0.073092 -0.714875 0.695422
vn -0.073092 0.714875 0.695422
vn -0.349626 -0.714875 0.605571
vn -0.349626 0.714875 0.605571
vn -0.565707 -0.714875 0.411011
vn -0.565707 0.714875 0.411011
vn -0.683972 -0.714875 0.145383
vn -0.683972 0.714875 0.145383
vn -0.683972 -0.714874 -0.145383
vn -0.683972 0.714874 -0.145383
vn -0.565707 -0.714875 -0.411011
vn -0.565707 0.714875 -0.411011
vn -0.349626 -0.714875 -0.605571
vn -0.349626 0.714875 -0.605571
vn -0.073092 -0.714875 -0.695422
vn -0.073092 0.714875 -0.695422
vn 0.216081 -0.714875 -0.665029
vn 0.216081 0.714875 -0.665029
vn 0.467892 -0.714875 -0.519646
vn 0.467892 0.714875 -0.519646
vn 0.638799 -0.714875 -0.284412
vn 0.638799 0.714875 -0.284412
vn 0.000000 1.000000 0.000000
vn 0.000000 -1.000000 0.000000
vn 0.642712 -0.766107 -0.000621
vn 0.628960 0.777437 -0.000000
vn 0.200803 -0.759044 0.619299
vn 0.194360 0.777438 0.598176
vn -0.508268 -0.777999 0.369299
vn -0.508840 0.777437 0.369693
vn -0.490767 -0.795183 -0.356135
vn -0.508840 0.777438 -0.369693
vn 0.190637 -0.788437 -0.584829
vn 0.194360 0.777438 -0.598176
vn 0.000000 1.000000 0.000000
vn 0.000000 -1.000000 0.000000
vn 0.999739 0.022839 -0.000483
vn 0.308524 0.036154 0.950529
vn -0.809009 -0.000505 0.587796
vn -0.808646 -0.036467 -0.587164
vn 0.309394 -0.022022 -0.950679
vn 0.609665 -0.792659 -0.000804
vn 0.998104 0.061543 0.000027
vn 0.198650 -0.767761 -0.609164
vn 0.308028 0.019173 -0.951184
vn -0.530309 -0.755367 -0.384959
vn -0.807176 -0.048642 -0.588304
vn -0.511656 -0.774456 0.372056
vn -0.807152 -0.048861 0.588318
vn 0.186273 -0.796398 0.575372
vn 0.308031 0.019291 0.951181
vn 0.000000 -1.000000 0.000000
vn 0.999138 -0.041498 -0.000630
vn 0.310022 0.016689 -0.950583
vn -0.808587 0.052955 -0.585989
vn -0.809359 0.016437 0.587084
vn 0.308780 -0.042085 0.950202
vn 0.987417 0.158081 0.004152
vn 0.283695 0.159728 -0.945518
vn -0.808803 -0.040009 -0.586717
vn -0.788301 -0.167423 0.592074
vn 0.310035 -0.033979 0.950118
vn -0.859442 0.289305 -0.421500
vn -0.740674 -0.520919 0.424317
vn 0.206937 0.701721 -0.681736
vn 0.989427 0.145030 0.000966
vn 0.398300 -0.610236 0.684813
vn -0.879277 0.432366 -0.199829
vn 0.173254 0.928742 -0.327753
vn 0.989479 0.144319 -0.010190
vn 0.436680 -0.852080 0.288564
vn -0.722702 -0.670606 0.167299
vn -0.764460 -0.310748 0.564833
vn -0.823899 0.104489 -0.557021
vn 0.244549 0.385023 -0.889917
vn 0.987344 0.158536 0.004344
vn 0.339933 -0.262375 0.903108
vn 0.609665 -0.792659 0.000804
vn 0.998104 0.061543 0.000027
vn 0.198650 -0.767761 0.609164
vn 0.308032 0.019291 0.951181
vn -0.530309 -0.755367 0.384959
vn -0.807152 -0.048861 0.588318
vn -0.511656 -0.774456 -0.372056
vn -0.807176 -0.048642 -0.588304
vn 0.186273 -0.796398 -0.575372
vn 0.308029 0.019173 -0.951184
vn 0.000000 -1.000000 0.000000
vn 0.999138 -0.041498 0.000683
vn 0.310025 0.016807 0.950580
vn -0.808581 0.052738 0.586017
vn -0.809371 0.016655 -0.587061
vn 0.308775 -0.042205 -0.950198
vn 0.987553 0.157284 -0.000804
vn 0.290967 0.158971 0.943433
vn -0.812461 -0.041543 0.581533
vn -0.793574 -0.167294 -0.585024
vn 0.317696 -0.031344 -0.947674
vn -0.887834 0.460103 0.007463
vn -0.716009 -0.698000 -0.011276
vn 0.171835 0.985122 -0.002577
vn 0.989642 0.143476 0.004842
vn 0.443327 -0.896353 0.003530
vn -0.859551 0.289606 0.421070
vn -0.740714 -0.521569 -0.423448
vn 0.206824 0.701392 0.682109
vn 0.989385 0.145308 -0.001500
vn 0.398010 -0.609970 -0.685219
vn -0.878239 0.431193 0.206806
vn 0.174593 0.929108 0.326001
vn 0.989375 0.144650 0.014648
vn 0.437704 -0.852492 -0.285783
vn -0.721396 -0.669352 -0.177638
vn -0.769965 -0.309770 -0.557850
vn -0.827575 0.102287 0.551957
vn 0.251122 0.387337 0.887078
vn 0.987478 0.157754 -0.000943
vn 0.347936 -0.263729 -0.899660
vn -0.000621 -0.766107 -0.642712
vn -0.000000 0.777437 -0.628960
vn 0.619299 -0.759044 -0.200803
vn 0.598176 0.777438 -0.194359
vn 0.369299 -0.777999 0.508268
vn 0.369693 0.777437 0.508840
vn -0.356135 -0.795183 0.490767
vn -0.369694 0.777438 0.508839
vn -0.584829 -0.788436 -0.190637
vn -0.598177 0.777438 -0.194360
vn 0.000000 1.000000 0.000000
vn 0.000000 -1.000000 0.000000
vn -0.000483 0.022839 -0.999739
vn 0.950529 0.036154 -0.308524
vn 0.587796 -0.000505 0.809009
vn -0.587164 -0.036467 0.808646
vn -0.950679 -0.022022 -0.309394
vt 0.949303 0.297536
vt 0.992338 0.500000
vt 0.992338 0.500000
vt 0.949303 0.297536
vt 0.494561 0.500000
vt 0.494561 0.500000
vt 0.827639 0.130080
vt 0.827639 0.130080
vt 0.648383 0.026586
vt 0.648383 0.026586
vt 0.442529 0.004950
vt 0.442529 0.004950
vt 0.245673 0.068913
vt 0.245673 0.068913
vt 0.091852 0.207414
vt 0.091852 0.207414
vt 0.007662 0.396507
vt 0.007662 0.396507
vt 0.007662 0.603494
vt 0.007662 0.603494
vt 0.091852 0.792586
vt 0.091852 0.792586
vt 0.245673 0.931087
vt 0.245673 0.931087
vt 0.442529 0.995049
vt 0.442529 0.995049
vt 0.648383 0.973413
vt 0.648383 0.973413
vt 0.827639 0.869920
vt 0.827639 0.869920
vt 0.949303 0.702464
vt 0.949303 0.702464
vt 0.611146 0.004950
vt 0.970820 0.500000
vt 0.970820 0.500000
vt 0.611146 0.004950
vt 0.611146 0.004950
vt 0.970820 0.500000
vt 0.450294 0.500000
vt 0.450294 0.500000
vt 0.029180 0.194043
vt 0.029180 0.194043
vt 0.029180 0.194043
vt 0.029180 0.805957
vt 0.029180 0.805957
vt 0.029180 0.805957
vt 0.611146 0.995049
vt 0.611146 0.995049
vt 0.611146 0.995049
vt 0.611146 0.004950
vt 0.970820 0.500000
vt 0.970820 0.500000
vt 0.611146 0.004950
vt 0.450294 0.500000
vt 0.029180 0.194043
vt 0.029180 0.194043
vt 0.029180 0.805957
vt 0.029180 0.805957
vt 0.611146 0.995049
vt 0.611146 0.995049
vt 0.611146 0.004950
vt 0.970820 0.500000
vt 0.029180 0.194043
vt 0.029180 0.805957
vt 0.611146 0.995049
vt 0.611146 0.004950
vt 0.970820 0.500000
vt 0.029180 0.194043
vt 0.029180 0.805957
vt 0.611146 0.995049
vt 0.029180 0.805957
vt 0.029180 0.194043
vt 0.611146 0.004950
vt 0.970820 0.500000
vt 0.611146 0.995049
vt 0.029180 0.805957
vt 0.029180 0.805957
vt 0.029180 0.194043
vt 0.029180 0.194043
vt 0.611146 0.004950
vt 0.611146 0.004950
vt 0.970820 0.500000
vt 0.970820 0.500000
vt 0.611146 0.995049
vt 0.611146 0.995049
vt 0.029180 0.805957
vt 0.029180 0.194043
vt 0.611146 0.004950
vt 0.970820 0.500000
vt 0.611146 0.995049
vt 0.611146 0.004950
vt 0.970820 0.500000
vt 0.970820 0.500000
vt 0.611146 0.004950
vt 0.450294 0.500000
vt 0.029180 0.194043
vt 0.029180 0.194043
vt 0.029180 0.805957
vt 0.029180 0.805957
vt 0.611146 0.995049
vt 0.611146 0.995049
vt 0.970820 0.500000
vt 0.611146 0.004950
vt 0.029180 0.194043
vt 0.029180 0.805957
vt 0.611146 0.995049
vt 0.970820 0.500000
vt 0.611146 0.004950
vt 0.029180 0.194043
vt 0.029180 0.805957
vt 0.611146 0.995049
vt 0.029180 0.194043
vt 0.029180 0.805957
vt 0.611146 0.004950
vt 0.970820 0.500000
vt 0.611146 0.995049
vt 0.029180 0.194043
vt 0.029180 0.194043
vt 0.029180 0.805957
vt 0.029180 0.805957
vt 0.611146 0.004950
vt 0.611146 0.004950
vt 0.970820 0.500000
vt 0.970820 0.500000
vt 0.611146 0.995049
vt 0.611146 0.995049
vt 0.029180 0.194043
vt 0.029180 0.805957
vt 0.611146 0.004950
vt 0.970820 0.500000
vt 0.611146 0.995049
vt 0.611146 0.004950
vt 0.970820 0.500000
vt 0.970820 0.500000
vt 0.611146 0.004950
vt 0.611146 0.004950
vt 0.970820 0.500000
vt 0.450294 0.500000
vt 0.450294 0.500000
vt 0.029180 0.194043
vt 0.029180 0.194043
vt 0.029180 0.194043
vt 0.029180 0.805957
vt 0.029180 0.805957
vt 0.029180 0.805957
vt 0.611146 0.995049
vt 0.611146 0.995049
vt 0.611146 0.995049
g Cylinder
usemtl Default
f 3/1/3 1/2/1 2/3/2 4/4/4 
f 4/4/4 2/3/2 31/5/31 
f 1/2/1 3/1/3 32/6/32 
f 5/7/5 3/1/3 4/4/4 6/8/6 
f 6/8/6 4/4/4 31/5/31 
f 3/1/3 5/7/5 32/6/32 
f 7/9/7 5/7/5 6/8/6 8/10/8 
f 8/10/8 6/8/6 31/5/31 
f 5/7/5 7/9/7 32/6/32 
f 9/11/9 7/9/7 8/10/8 10/12/10 
f 10/12/10 8/10/8 31/5/31 
f 7/9/7 9/11/9 32/6/32 
f 11/13/11 9/11/9 10/12/10 12/14/12 
f 12/14/12 10/12/10 31/5/31 
f 9/11/9 11/13/11 32/6/32 
f 13/15/13 11/13/11 12/14/12 14/16/14 
f 14/16/14 12/14/12 31/5/31 
f 11/13/11 13/15/13 32/6/32 
f 15/17/15 13/15/13 14/16/14 16/18/16 
f 16/18/16 14/16/14 31/5/31 
f 13/15/13 15/17/15 32/6/32 
f 17/19/17 15/17/15 16/18/16 18/20/18 
f 18/20/18 16/18/16 31/5/31 
f 15/17/15 17/19/17 32/6/32 
f 19/21/19 17/19/17 18/20/18 20/22/20 
f 20/22/20 18/20/18 31/5/31 
f 17/19/17 19/21/19 32/6/32 
f 21/23/21 19/21/19 20/22/20 22/24/22 
f 22/24/22 20/22/20 31/5/31 
f 19/21/19 21/23/21 32/6/32 
f 23/25/23 21/23/21 22/24/22 24/26/24 
f 24/26/24 22/24/22 31/5/31 
f 21/23/21 23/25/23 32/6/32 
f 25/27/25 23/25/23 24/26/24 26/28/26 
f 26/28/26 24/26/24 31/5/31 
f 23/25/23 25/27/25 32/6/32 
f 27/29/27 25/27/25 26/28/26 28/30/28 
f 28/30/28 26/28/26 31/5/31 
f 25/27/25 27/29/27 32/6/32 
f 29/31/29 27/29/27 28/30/28 30/32/30 
f 30/32/30 28/30/28 31/5/31 
f 27/29/27 29/31/29 32/6/32 
f 1/2/1 29/31/29 30/32/30 2/3/2 
f 2/3/2 30/32/30 31/5/31 
f 29/31/29 1/2/1 32/6/32 
f 35/33/35 33/34/33 45/35/45 46/36/46 
f 36/37/36 34/38/34 43/39/43 
f 33/34/33 35/33/35 44/40/44 
f 37/41/37 35/33/35 46/36/46 47/42/47 
f 38/43/38 36/37/36 43/39/43 
f 35/33/35 37/41/37 44/40/44 
f 39/44/39 37/41/37 47/42/47 48/45/48 
f 40/46/40 38/43/38 43/39/43 
f 37/41/37 39/44/39 44/40/44 
f 41/47/41 39/44/39 48/45/48 49/48/49 
f 42/49/42 40/46/40 43/39/43 
f 39/44/39 41/47/41 44/40/44 
f 33/34/33 41/47/41 49/48/49 45/35/45 
f 34/38/34 42/49/42 43/39/43 
f 41/47/41 33/34/33 44/40/44 
f 45/35/45 34/38/34 36/37/36 46/36/46 
f 46/36/46 36/37/36 38/43/38 47/42/47 
f 47/42/47 38/43/38 40/46/40 48/45/48 
f 48/45/48 40/46/40 42/49/42 49/48/49 
f 49/48/49 42/49/42 34/38/34 45/35/45 
f 62/50/62 61/51/61 50/52/50 52/53/52 
f 60/54/60 52/53/52 50/52/50 
f 63/55/63 62/50/62 52/53/52 54/56/54 
f 60/54/60 54/56/54 52/53/52 
f 64/57/64 63/55/63 54/56/54 56/58/56 
f 60/54/60 56/58/56 54/56/54 
f 65/59/65 64/57/64 56/58/56 58/60/58 
f 60/54/60 58/60/58 56/58/56 
f 61/51/61 65/59/65 58/60/58 50/52/50 
f 60/54/60 50/52/50 58/60/58 
f 62/50/62 53/61/53 51/62/51 61/51/61 
f 63/55/63 55/63/55 53/61/53 62/50/62 
f 64/57/64 57/64/57 55/63/55 63/55/63 
f 65/59/65 59/65/59 57/64/57 64/57/64 
f 61/51/61 51/62/51 59/65/59 65/59/65 
f 67/66/67 66/67/66 51/62/51 53/61/53 
f 68/68/68 67/66/67 53/61/53 55/63/55 
f 69/69/69 68/68/68 55/63/55 57/64/57 
f 70/70/70 69/69/69 57/64/57 59/65/59 
f 66/67/66 70/70/70 59/65/59 51/62/51 
f 81/71/81 82/72/82 68/68/68 69/69/69 
f 82/72/82 83/73/83 67/66/67 68/68/68 
f 83/73/83 84/74/84 66/67/66 67/66/67 
f 84/74/84 85/75/85 70/70/70 66/67/66 
f 85/75/85 81/71/81 69/69/69 70/70/70 
f 72/76/72 80/77/80 76/78/76 71/79/71 
f 71/79/71 76/78/76 77/80/77 73/81/73 
f 73/81/73 77/80/77 78/82/78 74/83/74 
f 74/83/74 78/82/78 79/84/79 75/85/75 
f 75/85/75 79/84/79 80/77/80 72/76/72 
f 80/77/80 108/86/108 107/87/107 76/78/76 
f 76/78/76 107/87/107 109/88/109 77/80/77 
f 77/80/77 109/88/109 110/89/110 78/82/78 
f 78/82/78 110/89/110 111/90/111 79/84/79 
f 79/84/79 111/90/111 108/86/108 80/77/80 
f 81/71/81 72/76/72 71/79/71 82/72/82 
f 82/72/82 71/79/71 73/81/73 83/73/83 
f 83/73/83 73/81/73 74/83/74 84/74/84 
f 84/74/84 74/83/74 75/85/75 85/75/85 
f 85/75/85 75/85/75 72/76/72 81/71/81 
f 88/91/88 86/92/86 97/93/97 98/94/98 
f 86/92/86 88/91/88 96/95/96 
f 90/96/90 88/91/88 98/94/98 99/97/99 
f 88/91/88 90/96/90 96/95/96 
f 92/98/92 90/96/90 99/97/99 100/99/100 
f 90/96/90 92/98/92 96/95/96 
f 94/100/94 92/98/92 100/99/100 101/101/101 
f 92/98/92 94/100/94 96/95/96 
f 86/92/86 94/100/94 101/101/101 97/93/97 
f 94/100/94 86/92/86 96/95/96 
f 97/93/97 87/102/87 89/103/89 98/94/98 
f 98/94/98 89/103/89 91/104/91 99/97/99 
f 99/97/99 91/104/91 93/105/93 100/99/100 
f 100/99/100 93/105/93 95/106/95 101/101/101 
f 101/101/101 95/106/95 87/102/87 97/93/97 
f 89/103/89 87/102/87 102/107/102 103/108/103 
f 91/104/91 89/103/89 103/108/103 104/109/104 
f 93/105/93 91/104/91 104/109/104 105/110/105 
f 95/106/95 93/105/93 105/110/105 106/111/106 
f 87/102/87 95/106/95 106/111/106 102/107/102 
f 105/110/105 104/109/104 123/112/123 122/113/122 
f 104/109/104 103/108/103 124/114/124 123/112/123 
f 103/108/103 102/107/102 125/115/125 124/114/124 
f 102/107/102 106/111/106 126/116/126 125/115/125 
f 106/111/106 105/110/105 122/113/122 126/116/126 
f 112/117/112 117/118/117 121/119/121 113/120/113 
f 114/121/114 118/122/118 117/118/117 112/117/112 
f 115/123/115 119/124/119 118/122/118 114/121/114 
f 116/125/116 120/126/120 119/124/119 115/123/115 
f 113/120/113 121/119/121 120/126/120 116/125/116 
f 117/118/117 107/127/107 108/128/108 121/119/121 
f 118/122/118 109/129/109 107/127/107 117/118/117 
f 119/124/119 110/130/110 109/129/109 118/122/118 
f 120/126/120 111/131/111 110/130/110 119/124/119 
f 121/119/121 108/128/108 111/131/111 120/126/120 
f 123/112/123 112/117/112 113/120/113 122/113/122 
f 124/114/124 114/121/114 112/117/112 123/112/123 
f 125/115/125 115/123/115 114/121/114 124/114/124 
f 126/116/126 116/125/116 115/123/115 125/115/125 
f 122/113/122 113/120/113 116/125/116 126/116/126 
f 129/132/129 127/133/127 139/134/139 140/135/140 
f 130/136/130 128/137/128 137/138/137 
f 127/133/127 129/132/129 138/139/138 
f 131/140/131 129/132/129 140/135/140 141/141/141 
f 132/142/132 130/136/130 137/138/137 
f 129/132/129 131/140/131 138/139/138 
f 133/143/133 131/140/131 141/141/141 142/144/142 
f 134/145/134 132/142/132 137/138/137 
f 131/140/131 133/143/133 138/139/138 
f 135/146/135 133/143/133 142/144/142 143/147/143 
f 136/148/136 134/145/134 137/138/137 
f 133/143/133 135/146/135 138/139/138 
f 127/133/127 135/146/135 143/147/143 139/134/139 
f 128/137/128 136/148/136 137/138/137 
f 135/146/135 127/133/127 138/139/138 
f 139/134/139 128/137/128 130/136/130 140/135/140 
f 140/135/140 130/136/130 132/142/132 141/141/141 
f 141/141/141 132/142/132 134/145/134 142/144/142 
f 142/144/142 134/145/134 136/148/136 143/147/143 
f 143/147/143 136/148/136 128/137/128 139/134/139 
